<svg width="512" height="512" viewBox="0 0 512 512" xmlns="http://www.w3.org/2000/svg">
  <defs>
    <linearGradient id="bgGradient" x1="0%" y1="0%" x2="100%" y2="100%">
      <stop offset="0%" style="stop-color:#6366f1;stop-opacity:1" />
      <stop offset="100%" style="stop-color:#4338ca;stop-opacity:1" />
    </linearGradient>
  </defs>
  
  <!-- Background -->
  <rect width="512" height="512" rx="80" fill="url(#bgGradient)"/>
  
  <!-- MCP Letters -->
  <text x="256" y="200" font-family="Arial, sans-serif" font-size="120" font-weight="bold" text-anchor="middle" fill="white">MCP</text>
  
  <!-- Configuration/Settings Icon -->
  <g transform="translate(256, 320)">
    <!-- Gear/Settings icon -->
    <path d="M-40,0 l-8,-20 a40,40 0 0,1 8,-24 l20,-8 a48,48 0 0,1 20,-8 l20,8 a40,40 0 0,1 24,8 l8,20 a48,48 0 0,1 8,20 l-8,20 a40,40 0 0,1 -8,24 l-20,8 a48,48 0 0,1 -20,8 l-20,-8 a40,40 0 0,1 -24,-8 l-8,-20 a48,48 0 0,1 -8,-20 z" 
          fill="none" stroke="white" stroke-width="8"/>
    <circle cx="0" cy="0" r="25" fill="white"/>
  </g>
  
  <!-- Editor hint (small lines) -->
  <rect x="160" y="380" width="80" height="6" rx="3" fill="white" opacity="0.8"/>
  <rect x="160" y="395" width="120" height="6" rx="3" fill="white" opacity="0.8"/>
  <rect x="160" y="410" width="100" height="6" rx="3" fill="white" opacity="0.8"/>
</svg>